<?xml version="1.0" standalone="no"?>
<!DOCTYPE svg PUBLIC "-//W3C//DTD SVG 20010904//EN"
 "http://www.w3.org/TR/2001/REC-SVG-20010904/DTD/svg10.dtd">
<svg version="1.0" xmlns="http://www.w3.org/2000/svg"
 width="327.000000pt" height="327.000000pt" viewBox="0 0 327.000000 327.000000"
 preserveAspectRatio="xMidYMid meet">
<metadata>
Created by potrace 1.14, written by Peter Selinger 2001-2017
</metadata>
<g transform="translate(0.000000,327.000000) scale(0.100000,-0.100000)"
fill="#000000" stroke="none">
<path d="M1085 3220 c-3 -5 -41 -10 -85 -10 -43 0 -81 -4 -85 -9 -7 -12 -83
-12 -91 0 -7 12 -141 11 -149 -1 -8 -12 -153 -11 -161 1 -3 5 -36 9 -74 9 -65
0 -70 -2 -90 -30 -17 -24 -19 -34 -10 -44 17 -21 -2 -28 -73 -26 -125 3 -117
6 -117 -50 0 -39 -4 -52 -20 -60 -13 -7 -20 -21 -20 -40 0 -17 -4 -30 -10 -30
-13 0 -13 -177 0 -185 6 -4 10 -75 10 -181 0 -109 4 -174 10 -174 6 0 10 -88
10 -244 0 -153 4 -247 10 -251 13 -8 13 -285 0 -285 -6 0 -10 -37 -10 -90 0
-53 -4 -90 -10 -90 -6 0 -10 -40 -10 -100 0 -60 -4 -100 -10 -100 -6 0 -10
-30 -10 -71 0 -44 -4 -68 -10 -64 -6 4 -10 -31 -11 -97 0 -152 -9 -302 -18
-308 -4 -3 -8 -50 -9 -105 -4 -166 -13 -269 -25 -277 -8 -5 0 -12 21 -20 17
-7 32 -16 32 -21 0 -5 11 -6 24 -3 37 9 76 -12 76 -42 0 -26 35 -61 62 -62 9
0 19 -4 22 -9 4 -5 29 -12 56 -16 28 -4 50 -10 50 -13 0 -4 68 -7 150 -7 106
0 153 -4 158 -12 12 -19 267 -20 286 0 12 12 60 14 289 13 151 -1 273 2 270 7
-2 4 12 7 31 7 20 0 36 -3 36 -7 0 -5 40 -7 90 -5 75 3 91 1 96 -12 5 -13 25
-16 110 -16 57 0 104 -3 104 -7 0 -5 74 -7 165 -5 94 2 165 -1 165 -6 0 -5 64
-12 141 -16 78 -4 149 -12 158 -17 9 -5 73 -13 142 -17 111 -6 130 -5 155 10
16 10 35 21 41 24 7 3 15 21 19 39 6 33 7 34 69 40 35 4 68 4 74 1 5 -4 11 7
13 26 3 29 7 33 36 36 18 2 36 10 39 18 3 8 12 14 20 14 8 0 12 4 9 9 -3 5 1
14 9 21 14 11 15 66 15 406 -1 217 2 398 5 404 8 13 7 559 -1 572 -4 5 -5 73
-4 151 4 276 -1 409 -17 425 -8 8 -12 23 -10 33 3 11 1 22 -4 25 -5 3 -5 14 2
25 13 25 8 189 -6 189 -6 0 -10 -34 -11 -82 0 -45 -4 -83 -10 -85 -5 -2 -8
-43 -6 -93 2 -57 -1 -90 -8 -90 -6 0 -10 -75 -10 -219 0 -136 -4 -222 -10
-226 -6 -3 -10 -33 -10 -66 0 -42 -4 -59 -12 -57 -8 3 -12 58 -14 181 -2 98
-6 182 -9 187 -3 5 2 17 12 27 16 16 18 34 15 133 -1 63 -4 121 -7 128 -8 23
-8 628 0 642 4 6 15 10 25 7 13 -3 16 0 13 13 -3 12 -11 16 -24 13 -22 -6 -22
-7 -19 100 1 49 -3 83 -10 92 -10 12 -9 15 7 15 27 0 73 23 70 35 -2 6 -30 11
-63 13 -32 1 -66 6 -74 9 -51 23 -347 34 -1110 42 -449 5 -825 11 -837 15 -12
4 -24 2 -28 -4z m1705 -230 c0 -5 -4 -10 -10 -10 -5 0 -10 5 -10 10 0 6 5 10
10 10 6 0 10 -4 10 -10z m-1430 -20 c0 -5 22 -10 49 -10 28 0 53 -5 56 -10 4
-6 25 -11 48 -11 23 0 66 0 94 0 29 0 55 -5 58 -10 4 -5 28 -9 54 -9 26 0 51
-4 57 -9 8 -9 38 -13 174 -27 30 -3 59 -10 65 -15 5 -5 39 -9 76 -9 37 0 70
-4 73 -9 9 -13 231 -23 534 -22 266 1 282 0 282 -17 0 -10 4 -22 8 -27 21 -24
34 -94 28 -151 -4 -32 -9 -106 -12 -164 -3 -57 -10 -110 -16 -117 -6 -8 -10
-51 -9 -102 1 -52 -2 -92 -8 -96 -6 -3 -10 -50 -10 -112 0 -68 -4 -109 -11
-113 -7 -5 -11 -46 -11 -116 0 -60 -4 -215 -9 -344 -14 -362 -17 -581 -8 -586
10 -6 11 -204 1 -204 -5 0 -7 -37 -7 -82 1 -60 -3 -88 -13 -100 -11 -13 -14
-35 -10 -91 7 -114 18 -109 -235 -104 -117 3 -333 5 -480 6 -148 1 -268 5
-268 10 0 8 -908 23 -921 15 -4 -2 -75 -5 -157 -7 -101 -1 -154 -6 -164 -14
-8 -7 -18 -10 -22 -6 -3 4 -29 6 -57 4 -64 -3 -113 21 -179 91 -57 59 -100
140 -100 186 0 18 -4 32 -9 32 -19 0 -39 226 -22 243 7 7 11 53 11 112 0 56 4
105 9 111 5 5 12 63 16 129 4 66 9 163 12 215 3 52 8 146 10 208 2 61 8 112
14 112 13 0 12 737 -1 745 -6 4 -10 60 -10 136 0 79 4 129 10 129 6 0 10 35
10 84 0 48 5 88 10 91 6 4 96 6 201 5 146 0 190 2 194 12 4 10 36 12 135 10
88 -3 130 0 130 7 0 7 54 11 165 11 103 0 165 -4 165 -10z m-1223 -1882 c-3
-8 -6 -5 -6 6 -1 11 2 17 5 13 3 -3 4 -12 1 -19z m20 -305 c3 -197 2 -222 -12
-217 -8 3 -15 14 -16 23 0 18 -16 152 -25 219 -4 27 -2 48 5 55 6 6 11 38 11
71 0 34 3 72 7 85 6 22 7 22 16 5 7 -11 12 -111 14 -241z m2993 -443 c0 -21
-4 -41 -9 -44 -11 -7 -25 69 -16 84 12 19 25 -1 25 -40z m-280 -220 c0 -13
-50 -13 -70 0 -11 7 -4 10 28 10 23 0 42 -4 42 -10z"/>
<path d="M665 2335 c-32 -31 -31 -47 5 -101 30 -43 32 -44 88 -45 31 0 66 -4
77 -8 20 -8 15 -9 -155 -25 -100 -9 -169 -60 -170 -127 0 -54 54 -94 205 -150
33 -12 67 -28 76 -35 8 -8 20 -14 26 -14 5 0 24 -15 40 -32 92 -97 175 -155
227 -157 10 -1 64 21 120 48 55 27 112 52 126 56 14 4 48 20 75 35 28 16 79
34 115 41 36 7 68 18 72 24 4 5 8 6 8 2 0 -4 10 -2 22 4 20 11 108 23 108 15
0 -5 -88 -33 -120 -39 -37 -7 -113 -29 -125 -37 -5 -3 -29 -13 -53 -20 -63
-20 -72 -44 -30 -83 65 -63 111 -86 159 -81 38 4 41 3 22 -7 -13 -7 -23 -16
-23 -20 0 -17 117 -67 172 -74 42 -5 64 -3 87 8 30 15 31 15 31 -8 0 -13 5
-27 10 -30 6 -3 10 -13 10 -21 0 -12 28 -49 76 -99 7 -6 18 -37 25 -69 7 -32
19 -65 27 -73 13 -13 13 -24 3 -77 -16 -81 -4 -191 22 -208 15 -9 47 14 47 34
0 9 5 20 10 23 14 9 13 192 -1 201 -8 4 -10 26 -6 62 5 49 3 61 -21 99 -15 23
-34 45 -43 48 -10 3 -21 32 -32 81 l-17 76 37 39 c41 43 59 48 67 21 3 -9 20
-28 37 -42 18 -14 49 -40 70 -59 43 -37 88 -50 171 -51 46 0 62 5 84 24 l28
23 -21 22 c-18 20 -28 21 -118 18 l-98 -3 -38 53 c-22 29 -39 57 -39 63 0 5
-4 10 -10 10 -17 0 -50 39 -50 59 0 34 26 30 75 -10 60 -50 188 -112 214 -104
21 6 59 137 41 143 -5 2 -10 10 -10 17 0 8 -13 37 -30 65 -16 28 -30 54 -30
57 0 3 -8 12 -17 19 -12 8 -15 16 -8 23 13 13 99 -5 116 -25 6 -8 15 -14 20
-14 9 0 30 -16 89 -67 21 -18 43 -33 50 -33 16 0 39 -30 40 -50 0 -19 46 -77
54 -69 11 11 -6 69 -20 69 -8 0 -14 6 -14 14 0 8 -7 16 -15 20 -8 3 -15 13
-15 21 0 9 -16 33 -35 53 -19 20 -35 40 -35 45 0 4 -4 7 -10 7 -5 0 -28 18
-50 40 -22 22 -46 40 -52 40 -28 1 19 18 67 25 131 18 265 72 265 107 0 13
-183 -2 -270 -22 -25 -6 -62 -15 -83 -19 -21 -5 -44 -14 -50 -20 -6 -6 -21
-11 -33 -11 -12 0 -42 -9 -68 -20 -25 -12 -68 -24 -95 -27 -44 -5 -51 -3 -87
29 -22 18 -61 45 -89 60 -46 24 -62 26 -197 30 -80 2 -152 9 -160 14 -7 6 -44
16 -83 23 -38 7 -133 29 -210 48 -77 19 -153 36 -170 38 -16 2 -68 17 -115 33
-97 34 -296 82 -341 82 -18 0 -39 -9 -54 -25z m155 -70 c37 -13 39 -14 11 -10
-18 3 -40 5 -47 5 -8 0 -14 5 -14 10 0 12 -4 13 50 -5z m101 -33 c-7 -2 -18 1
-23 6 -8 8 -4 9 13 5 13 -4 18 -8 10 -11z m89 -12 c12 -8 11 -10 -7 -10 -12 0
-25 5 -28 10 -8 13 15 13 35 0z m50 -20 c8 -5 11 -10 5 -10 -5 0 -17 5 -25 10
-8 5 -10 10 -5 10 6 0 17 -5 25 -10z m79 -26 c2 -2 2 -7 -1 -10 -4 -3 -19 2
-35 11 l-28 16 30 -6 c16 -4 32 -9 34 -11z m-194 -9 c33 -9 83 -18 110 -21 28
-4 57 -10 65 -14 8 -4 35 -11 60 -15 25 -4 70 -14 100 -22 81 -22 134 -32 142
-27 5 3 8 1 8 -3 0 -10 133 -32 238 -40 34 -3 62 -9 62 -14 0 -5 15 -10 33
-10 26 -1 28 -3 8 -6 -14 -3 -52 1 -85 7 -34 7 -97 16 -141 20 -98 9 -204 28
-226 40 -9 4 -41 11 -72 15 -32 4 -57 10 -57 14 0 4 -17 8 -37 9 -20 2 -42 7
-48 11 -5 5 -36 12 -67 15 -32 4 -60 12 -63 17 -4 5 -21 9 -40 9 -39 0 -65 8
-65 21 0 12 4 11 75 -6z m235 -5 c12 -8 11 -10 -7 -10 -13 0 -23 5 -23 10 0
13 11 13 30 0z m140 -31 c27 -15 -35 -10 -71 6 l-34 16 45 -7 c25 -3 52 -10
60 -15z m-375 -26 c2 -7 18 -13 35 -13 17 0 52 -6 78 -14 26 -7 85 -24 132
-36 47 -12 95 -26 107 -30 22 -9 142 -24 178 -22 10 1 24 -3 31 -9 6 -5 62
-12 123 -16 94 -5 136 -15 120 -27 -2 -2 -51 1 -109 6 -58 5 -157 12 -220 17
-63 4 -128 13 -145 19 -16 6 -57 18 -90 27 -33 9 -71 21 -85 27 -14 6 -43 13
-65 15 -22 2 -52 9 -67 14 -15 6 -34 9 -42 6 -8 -3 -17 -3 -20 0 -3 4 -27 6
-54 5 -26 -1 -76 -1 -112 -1 -36 0 -77 0 -92 0 -16 -1 -28 3 -28 9 0 5 8 10
18 10 10 0 22 4 28 9 16 15 45 19 161 17 80 -1 114 -5 118 -13z m0 -92 c17 -5
48 -12 70 -16 71 -11 165 -43 165 -56 0 -8 -193 -5 -305 6 -48 4 -117 16 -180
31 -23 6 -95 41 -95 47 0 7 321 -5 345 -12z m912 13 c-3 -3 -12 -4 -19 -1 -8
3 -5 6 6 6 11 1 17 -2 13 -5z m40 0 c-3 -3 -12 -4 -19 -1 -8 3 -5 6 6 6 11 1
17 -2 13 -5z m-67 -28 c0 -11 -19 -15 -25 -6 -3 5 1 10 9 10 9 0 16 -2 16 -4z
m223 -63 c5 -3 1 -10 -7 -16 -22 -17 -6 -35 34 -39 35 -3 35 -3 -22 -24 l-58
-22 0 25 c0 14 -3 23 -7 21 -5 -2 -20 -10 -36 -17 -15 -8 -30 -11 -33 -8 -12
12 16 35 51 41 35 7 44 19 25 31 -21 13 -9 25 18 19 15 -4 31 -9 35 -11z
m-118 -13 c-3 -5 -14 -10 -24 -10 -9 0 -26 -7 -37 -15 -22 -16 -44 -19 -44 -6
0 5 19 16 43 24 50 18 70 21 62 7z m345 -59 c33 -30 40 -44 35 -60 -3 -12 -11
-21 -16 -21 -23 0 -79 73 -79 103 0 26 14 21 60 -22z m-1265 8 c49 -11 193 -7
288 7 82 12 52 -17 -49 -46 -52 -16 -292 -10 -302 7 -4 6 -24 14 -45 18 -21 4
-37 13 -37 21 0 15 52 12 145 -7z m865 -56 c-1 -11 -170 -86 -177 -79 -10 10
29 46 51 46 12 1 37 9 56 19 37 20 70 26 70 14z m170 -2 c21 -6 18 -9 -25 -15
-27 -4 -69 -19 -92 -32 -22 -14 -44 -21 -46 -16 -8 11 4 25 33 38 79 36 86 37
130 25z m-380 -22 c0 -5 -7 -9 -15 -9 -8 0 -15 -3 -15 -8 0 -7 -40 -26 -75
-35 -11 -3 -28 -8 -37 -12 -11 -4 -18 -3 -18 4 0 11 21 22 98 53 17 7 32 16
32 20 0 4 7 5 15 2 8 -4 15 -10 15 -15z m-425 -17 c-6 -5 -43 -19 -83 -32 -63
-20 -78 -21 -113 -11 -22 7 -39 18 -39 26 0 11 23 15 113 18 61 1 116 4 122 5
6 1 6 -1 0 -6z m553 -87 c-68 -39 -130 -66 -136 -60 -10 11 41 46 95 65 53 19
78 15 41 -5z m-167 0 c-18 -8 -42 -15 -52 -15 -11 0 -19 -4 -19 -9 0 -5 -8 -8
-17 -7 -22 3 -24 18 -3 23 116 26 138 28 91 8z m309 10 c0 -14 -54 -55 -67
-50 -12 4 -7 11 18 29 33 24 49 31 49 21z m-118 -107 c-14 -14 -62 -20 -62 -8
0 8 23 15 60 19 11 1 11 -2 2 -11z m64 -25 c-14 -15 -29 -23 -33 -19 -4 4 3
16 16 27 35 28 46 23 17 -8z m-149 -10 c-9 -9 -20 -13 -24 -9 -4 4 -1 11 7 16
25 16 35 11 17 -7z"/>
<path d="M1085 1539 l-59 -61 0 -65 -1 -65 90 -35 c74 -29 107 -36 184 -39 87
-4 96 -3 118 18 12 12 23 17 23 10 0 -13 30 -20 50 -11 8 4 30 13 48 19 27 11
32 17 32 46 0 19 5 34 10 34 6 0 10 -13 10 -29 0 -27 9 -45 65 -137 10 -17 31
-40 46 -50 38 -25 90 -115 96 -166 3 -24 16 -66 29 -95 13 -28 24 -56 24 -62
0 -17 53 -52 74 -49 22 3 45 56 29 67 -12 8 -43 70 -43 86 0 7 -7 15 -15 19
-9 3 -15 18 -15 36 0 16 -4 30 -9 30 -12 0 -41 80 -41 114 0 57 -32 140 -69
177 -20 21 -49 53 -66 73 -16 20 -35 36 -42 36 -7 0 -17 9 -23 21 -15 26 -42
21 -51 -11 -6 -20 -7 -17 -8 17 -1 51 2 50 -170 56 -85 3 -126 8 -131 17 -4 7
-13 9 -19 6 -6 -4 -21 0 -33 8 -12 9 -30 16 -40 16 -10 0 -18 7 -18 15 0 26
-15 17 -75 -46z m60 -35 c-14 -26 -15 -27 -15 -6 0 27 24 69 28 49 1 -7 -4
-26 -13 -43z m24 -86 c-17 -31 -23 -9 -8 28 9 22 13 25 16 12 2 -9 -1 -27 -8
-40z m96 22 c10 -16 -6 -60 -22 -60 -10 0 -13 6 -9 16 3 9 6 24 6 35 0 20 15
26 25 9z m92 -70 c9 -24 8 -50 -2 -52 -6 -2 -10 27 -11 67 -1 39 1 54 3 35 2
-19 7 -42 10 -50z m-253 26 c-6 -16 -24 -23 -24 -8 0 10 22 33 27 28 2 -2 1
-11 -3 -20z m436 -6 c0 -5 -5 -10 -11 -10 -5 0 -7 5 -4 10 3 6 8 10 11 10 2 0
4 -4 4 -10z"/>
<path d="M1561 1121 c-13 -11 -28 -18 -35 -15 -7 3 -26 -2 -42 -11 -16 -8 -41
-15 -56 -15 -39 0 -137 -47 -115 -56 9 -3 17 -10 17 -15 0 -18 -20 -8 -53 26
-38 39 -54 43 -73 18 -12 -16 -7 -24 49 -75 34 -32 69 -58 78 -58 8 0 24 -7
35 -15 24 -18 39 -19 56 -2 7 7 49 21 93 31 44 11 84 23 90 28 5 4 17 8 27 8
27 0 32 24 18 78 -25 98 -43 113 -89 73z m-1 -61 c0 -11 -4 -20 -10 -20 -5 0
-10 9 -10 20 0 11 5 20 10 20 6 0 10 -9 10 -20z"/>
<path d="M1661 896 c-7 -8 -20 -14 -29 -14 -9 1 -34 -2 -54 -6 -40 -7 -52 -33
-25 -53 21 -16 110 -51 150 -58 33 -6 37 -5 37 14 0 34 -40 131 -54 131 -8 0
-19 -6 -25 -14z"/>
<path d="M1750 745 c0 -9 9 -15 25 -15 16 0 25 6 25 15 0 9 -9 15 -25 15 -16
0 -25 -6 -25 -15z"/>
</g>
</svg>
